# ProBuilder 6.0.7
# https://unity3d.com/unity/features/worldbuilding/probuilder
# 2025-10-17 오전 10:26:57

mtllib ./Room-05.mtl
o Room-05

g Room-05
v -6.280859 0 56.42999
v -6.280856 0 46.42999
v -6.280859 10 56.42999
v -6.280856 10 46.42999
v 36.35 0 46.43
v 36.35 0 56.43
v 36.35 10 46.43
v 36.35 10 56.43
v 29.35468 10 46.43
v 32.37101 10 46.43
v 32.37101 5 46.43
v 29.35468 5 46.43
v 32.37101 0 46.43
v 1.698441 10 46.42999
v -1.284003 10 46.42998
v -1.284003 0 46.42998
v 1.698441 0 46.42999
v 29.35468 0 46.43
v 1.698441 5 46.42999
v -1.284003 5 46.42998
v -11.50001 0 42.27999
v -11.50001 0 32.27999
v -11.50001 10 42.27999
v -11.50001 10 32.27999
v 18.5 0 32.27999
v 18.5 0 42.27999
v 18.5 10 32.27999
v 18.5 10 42.27999
v -1.619892 0 42.27998
v -1.619892 5 42.27998
v -1.619892 10 42.27998
v 1.451871 5 42.27998
v 1.451871 10 42.27998
v 1.451871 0 42.27998
v 10.51617 10 32.27999
v 13.53321 10 32.27999
v 10.51617 0 32.27999
v 13.53321 0 32.27999
v 10.51617 5 32.27999
v 13.53321 5 32.27999
v 26.57 0 12.38998
v 36.57001 0 12.38998
v 26.57 10 12.38998
v 36.57001 10 12.38998
v 36.57001 0 42.39
v 36.57001 10 42.39
v 26.57 0 42.39
v 26.57 10 42.39
v 26.57 10 26.45457
v 26.57 5 26.45457
v 26.57 0 26.45457
v 26.57 10 23.42379
v 26.57 5 23.42379
v 26.57 0 23.42379
v 32.81187 10 42.39
v 29.69094 10 42.39
v 32.81187 0 42.39
v 29.69094 0 42.39
v 32.81187 5 42.39
v 29.69094 5 42.39
v -8.900012 0 27.49999
v -8.900013 0 17.49998
v -8.900012 10 27.49999
v -8.900013 10 17.49998
v 1.222791 0 17.49998
v 1.222791 5 17.49998
v 1.222791 10 17.49998
v 21.1 10 17.49999
v 21.1 0 17.49999
v -1.794522 10 17.49998
v -1.794522 5 17.49998
v -1.794522 0 17.49998
v 12.83789 0 27.5
v 12.83789 5 27.5
v 12.83789 10 27.5
v 15.92761 5 27.49999
v 15.92761 10 27.49999
v 15.92761 0 27.49999
v 21.10001 0 27.49999
v 21.10001 10 27.49999
v 21.10001 10 24.04376
v 21.10001 10 20.58753
v 21.10001 0 20.58753
v 21.10001 0 24.04376
v 21.10001 5 20.58753
v 21.10001 5 24.04376
v -5.000012 0 14.99998
v -5.000012 0 -15.00003
v -5.000012 10 14.99998
v -5.000012 10 -15.00003
v 5 0 -15.00004
v 5 10 -15.00004
v 4.999997 0 14.99999
v 4.999997 10 14.99999
v 1.306957 10 14.99999
v -1.846524 10 14.99999
v 1.306957 0 14.99999
v -1.846524 0 14.99999
v 1.306957 5 14.99999
v -1.846524 5 14.99999

vt 0 -9
vt 10.00001 -9
vt 0 1
vt 10.00001 1
vt 42.63086 -9
vt 42.63086 1
vt 35.63553 1
vt 38.65186 1
vt 38.65186 -4
vt 35.63553 -4
vt 38.65186 -9
vt 8.106232E-06 0.9999981
vt 10.00002 -41.63086
vt 1.716614E-05 -41.63086
vt 1.525879E-05 -37.65187
vt 1.525879E-05 -34.63553
vt 3.33786E-06 -6.979298
vt 0 -3.996855
vt 10 -37.65187
vt 10.00001 0.9999981
vt 10.00002 -3.996855
vt 10.00001 -6.979298
vt 10 -34.63553
vt 7.979296 1
vt 35.63553 -9
vt 7.979296 -9
vt 7.979296 -4
vt 4.996853 1
vt 4.996853 -4
vt 4.996853 -9
vt 9.880112 0.9999995
vt 9.880112 -4
vt 9.880112 -9
vt 12.95188 1
vt 12.95188 -4
vt 9.880114 -4
vt 9.880114 1
vt 30.00001 -9
vt 12.95188 -9
vt 30.00001 1
vt 30.00001 -4
vt -1.907349E-06 -21.01617
vt 9.999991 -8.880116
vt 9.99999 -11.95187
vt 9.999997 -29
vt -5.722046E-06 -29
vt -1.907349E-06 -24.03321
vt 10 -29
vt 2.861023E-06 -29
vt 1.239777E-05 -11.95187
vt 1.239777E-05 -8.880114
vt 9.999997 1
vt 9.999999 -21.01617
vt 9.999999 -24.03321
vt 30 -9
vt 30 1
vt 11.26805 1
vt 11.26805 -4
vt 11.26805 -9
vt 13.41113 1
vt 13.41113 -4
vt 13.84585 -11.13594
vt 12.30004 -5.335804
vt 10.75422 0.4643316
vt 20.77849 3.135939
vt 23.87012 -8.464332
vt 6.241863 1.000002
vt 0 -17.9662
vt 0 -14.93542
vt 3.120937 1.000002
vt 10 -14.93542
vt 10 -17.9662
vt 3.758139 0.9999981
vt 6.879066 0.9999971
vt 8.374437 -14.0447
vt 5.843122 -6.995853
vt 3.311806 0.05299664
vt 19.99666 6.044703
vt 25.05929 -8.052998
vt 5.024338 1
vt 5.024338 -4
vt 5.024338 -9
vt 7.157904 1
vt 7.157904 -4
vt 45.47 -9
vt 23.73211 -9
vt 23.73211 -4
vt 23.73211 1
vt 45.47 1
vt 20.6424 -4
vt 20.6424 1
vt 20.64239 -9
vt 15.47 -9
vt 15.47 1
vt 10.00001 -20.73789
vt 10.00001 -23.82761
vt 10.00001 -29
vt 6.543777 -29
vt 3.087547 -29.00001
vt -3.814697E-06 -9.122795
vt -3.814697E-06 -6.105486
vt 10.00001 -6.105488
vt 10.00001 -9.122799
vt 9.999994 -29
vt 6.912457 -29
vt 3.456228 -29
vt -1.907349E-06 -23.82761
vt -1.907349E-06 -20.73789
vt 3.08754 -9
vt 3.08754 1
vt 3.08754 -4
vt 6.543774 -9
vt 6.543774 -4
vt 6.543774 1
vt 6.306965 0.9999962
vt 3.153488 0.9999962
vt 3.693039 0.9999924
vt 6.846519 0.9999924
vt -12.82673 -14.98023
vt -9.673252 -14.98023
vt -12.74256 -12.48023
vt -9.72525 -12.48023
vt -5.167763 -10.89221
vt -7.699078 -3.843359
vt -7.267435 -11.64622
vt -9.798752 -4.597373
vt -3.747227 -4
vt -3.747227 -9
vt 1.598944 -4
vt 1.598944 -9
vt -4.779997 -21.43321
vt -4.779997 -18.41618
vt 33.02625 -9
vt 33.02625 -4
vt 27.71223 -9
vt 27.71223 -4
vt -8.709944 4.512112
vt -8.709946 1.422392
vt -3.929953 6.833827
vt -3.929953 3.816789
vt 6.54377 -3.750004
vt 3.08754 -3.750008
vt 8.954576 -9.219999
vt 5.923796 -9.219999
vt -2.647447 -4
vt -2.647447 -9
vt 1.579422 -4
vt 1.579422 -9
vt 19.51091 -4
vt 19.51091 -9
vt 25.6725 -4
vt 25.6725 -9
vt 4.076204 -34.46999
vt 1.045425 -34.46999
vt 4.040001 -2.016337
vt 4.040001 1
vt 0 -2.457193
vt 0 0.6637363
vt -13.7486 -15.53327
vt -10.62767 -15.53327
vt -13.30774 -11.49327
vt -10.2914 -11.49327
vt 4.149998 -2.318333
vt 4.149995 0.6641102
vt 0 -2.071762
vt -0.2121916 -4
vt -0.2121916 -9
vt 3.945125 -4
vt 3.945125 -9
vt -4.149984 -12.19845
vt -4.149981 -9.216003
vt 0 -4
vt 4.163566 1
vt 4.163566 -4

vn 1 0 3.099441E-07
vn -1 0 -1.192093E-07
vn 2.086914E-07 0 -1
vn -1.192093E-07 0 1
vn 0 -1 0
vn 0 1 0
vn 0.9997839 0 -0.02079623
vn -0.9994339 0 -0.03364739
vn -0.894098 0 -0.4478715
vn 0.8995081 0 0.4369044
vn 0.4033005 0 -0.9150677
vn -0.4603127 0 0.887757
vn 0.9965541 0 0.08294686
vn -0.9940989 0 -0.1084789
vn -0.9982398 0 0.05930992
vn 0.9967407 0 -0.08067349

usemtl ProBuilderDefault
f 10/8/4 11/9/4 7/6/4
f 11/9/4 5/5/4 7/6/4
f 11/9/4 13/11/4 5/5/4
f 15/18/5 3/4/5 4/12/5
f 3/4/5 15/18/5 14/17/5
f 9/16/5 3/4/5 14/17/5
f 10/15/5 3/4/5 9/16/5
f 8/13/5 3/4/5 10/15/5
f 7/14/5 8/13/5 10/15/5
f 13/19/6 6/14/6 5/13/6
f 13/19/6 1/3/6 6/14/6
f 18/23/6 1/3/6 13/19/6
f 17/22/6 1/3/6 18/23/6
f 17/22/6 16/21/6 1/3/6
f 2/20/6 1/3/6 16/21/6
f 12/10/4 9/7/4 14/24/4
f 19/27/4 12/10/4 14/24/4
f 19/27/4 17/26/4 12/10/4
f 17/26/4 18/25/4 12/10/4
f 20/29/4 15/28/4 4/3/4
f 2/1/4 20/29/4 4/3/4
f 2/1/4 16/30/4 20/29/4
f 30/32/3 29/31/3 21/3/3
f 23/1/3 30/32/3 21/3/3
f 23/1/3 31/33/3 30/32/3
f 26/39/3 34/38/3 32/41/3
f 28/34/3 26/39/3 32/41/3
f 28/34/3 32/41/3 33/40/3
f 24/3/5 31/43/5 23/4/5
f 35/42/5 31/43/5 24/3/5
f 35/42/5 33/44/5 31/43/5
f 35/42/5 36/47/5 33/44/5
f 28/45/5 33/44/5 36/47/5
f 27/46/5 28/45/5 36/47/5
f 38/54/6 26/49/6 25/48/6
f 38/54/6 34/50/6 26/49/6
f 34/50/6 38/54/6 37/53/6
f 29/51/6 34/50/6 37/53/6
f 22/52/6 29/51/6 37/53/6
f 21/3/6 29/51/6 22/52/6
f 39/3/4 35/3/4 24/3/4
f 22/3/4 39/3/4 24/3/4
f 22/3/4 37/3/4 39/3/4
f 36/3/4 40/3/4 27/3/4
f 40/3/4 25/3/4 27/3/4
f 40/3/4 38/3/4 25/3/4
f 50/58/1 49/57/1 48/3/1
f 47/1/1 50/58/1 48/3/1
f 47/1/1 51/59/1 50/58/1
f 52/64/1 53/63/1 43/65/1
f 53/63/1 41/66/1 43/65/1
f 53/63/1 54/62/1 41/66/1
f 49/69/5 46/4/5 55/67/5
f 49/69/5 44/45/5 46/4/5
f 49/69/5 52/68/5 44/45/5
f 52/68/5 43/49/5 44/45/5
f 49/69/5 55/67/5 56/70/5
f 48/3/5 49/69/5 56/70/5
f 58/74/6 51/71/6 47/20/6
f 58/74/6 57/73/6 51/71/6
f 42/49/6 41/45/6 54/72/6
f 42/49/6 54/72/6 51/71/6
f 45/12/6 42/49/6 51/71/6
f 57/73/6 45/12/6 51/71/6
f 59/3/3 55/3/3 46/3/3
f 45/3/3 59/3/3 46/3/3
f 45/3/3 57/3/3 59/3/3
f 56/3/3 60/3/3 48/3/3
f 60/3/3 47/3/3 48/3/3
f 60/3/3 58/3/3 47/3/3
f 67/77/4 66/76/4 68/78/4
f 66/76/4 69/79/4 68/78/4
f 66/76/4 65/75/4 69/79/4
f 71/81/4 70/80/4 64/3/4
f 62/1/4 71/81/4 64/3/4
f 62/1/4 72/82/4 71/81/4
f 74/87/3 73/86/3 61/85/3
f 63/89/3 74/87/3 61/85/3
f 63/89/3 75/88/3 74/87/3
f 79/93/3 78/92/3 76/90/3
f 80/94/3 79/93/3 76/90/3
f 80/94/3 76/90/3 77/91/3
f 75/95/5 63/20/5 82/99/5
f 75/95/5 82/99/5 77/96/5
f 77/96/5 82/99/5 81/98/5
f 80/97/5 77/96/5 81/98/5
f 63/20/5 67/100/5 82/99/5
f 67/100/5 63/20/5 70/101/5
f 70/101/5 63/20/5 64/3/5
f 82/99/5 67/100/5 68/46/5
f 69/104/6 65/103/6 83/105/6
f 62/4/6 61/12/6 72/102/6
f 72/102/6 61/12/6 65/103/6
f 83/105/6 65/103/6 61/12/6
f 84/106/6 78/107/6 79/49/6
f 84/106/6 83/105/6 78/107/6
f 78/107/6 83/105/6 73/108/6
f 83/105/6 61/12/6 73/108/6
f 69/1/2 83/109/2 85/111/2
f 68/3/2 69/1/2 85/111/2
f 68/3/2 85/111/2 82/110/2
f 86/113/2 84/112/2 79/2/2
f 80/4/2 86/113/2 79/2/2
f 80/4/2 81/114/2 86/113/2
f 92/48/5 94/20/5 95/115/5
f 92/48/5 95/115/5 90/46/5
f 90/46/5 95/115/5 96/116/5
f 89/12/5 90/46/5 96/116/5
f 98/118/6 88/48/6 87/20/6
f 98/118/6 97/117/6 88/48/6
f 88/48/6 97/117/6 91/49/6
f 97/117/6 93/12/6 91/49/6
f 99/3/3 95/3/3 94/3/3
f 93/3/3 99/3/3 94/3/3
f 93/3/3 97/3/3 99/3/3
f 96/3/3 100/3/3 89/3/3
f 100/3/3 87/3/3 89/3/3
f 100/3/3 98/3/3 87/3/3
f 2/2/1 4/4/1 3/3/1
f 3/3/1 1/1/1 2/2/1
f 6/2/2 8/4/2 7/3/2
f 7/3/2 5/1/2 6/2/2
f 1/5/3 3/6/3 8/3/3
f 8/3/3 6/1/3 1/5/3
f 10/8/4 9/7/4 12/10/4
f 12/10/4 11/9/4 10/8/4
f 14/24/4 15/28/4 20/29/4
f 20/29/4 19/27/4 14/24/4
f 22/2/1 24/4/1 23/3/1
f 23/3/1 21/1/1 22/2/1
f 26/2/2 28/4/2 27/3/2
f 27/3/2 25/1/2 26/2/2
f 33/35/3 32/34/3 30/37/3
f 30/37/3 31/36/3 33/35/3
f 36/3/4 35/3/4 39/3/4
f 39/3/4 40/3/4 36/3/4
f 42/2/4 44/4/4 43/3/4
f 43/3/4 41/1/4 42/2/4
f 45/55/2 46/56/2 44/3/2
f 44/3/2 42/1/2 45/55/2
f 53/61/1 52/60/1 49/57/1
f 49/57/1 50/58/1 53/61/1
f 60/3/3 56/3/3 55/3/3
f 55/3/3 59/3/3 60/3/3
f 62/2/1 64/4/1 63/3/1
f 63/3/1 61/1/1 62/2/1
f 66/84/4 67/83/4 70/80/4
f 70/80/4 71/81/4 66/84/4
f 77/91/3 76/90/3 74/87/3
f 74/87/3 75/88/3 77/91/3
f 82/110/2 85/111/2 86/113/2
f 86/113/2 81/114/2 82/110/2
f 88/55/1 90/56/1 89/3/1
f 89/3/1 87/1/1 88/55/1
f 91/2/4 92/4/4 90/3/4
f 90/3/4 88/1/4 91/2/4
f 93/38/2 94/40/2 92/3/2
f 92/3/2 91/1/2 93/38/2
f 100/3/3 96/3/3 95/3/3
f 95/3/3 99/3/3 100/3/3
f 71/3/5 100/3/5 99/3/5
f 99/3/5 66/3/5 71/3/5
f 72/3/7 98/3/7 100/3/7
f 100/3/7 71/3/7 72/3/7
f 65/121/6 97/119/6 98/120/6
f 98/120/6 72/122/6 65/121/6
f 97/125/8 65/123/8 66/124/8
f 66/124/8 99/126/8 97/125/8
f 40/129/9 76/127/9 78/128/9
f 78/128/9 38/130/9 40/129/9
f 38/131/6 78/107/6 73/108/6
f 73/108/6 37/132/6 38/131/6
f 37/135/10 73/133/10 74/134/10
f 74/134/10 39/136/10 37/135/10
f 39/139/5 74/137/5 76/138/5
f 76/138/5 40/140/5 39/139/5
f 50/143/5 86/141/5 85/142/5
f 85/142/5 53/144/5 50/143/5
f 86/147/11 50/145/11 51/146/11
f 51/146/11 84/148/11 86/147/11
f 53/151/12 85/149/12 83/150/12
f 83/150/12 54/152/12 53/151/12
f 54/153/6 83/105/6 84/106/6
f 84/106/6 51/154/6 54/153/6
f 59/157/5 11/155/5 12/156/5
f 12/156/5 60/158/5 59/157/5
f 18/3/13 58/3/13 60/3/13
f 60/3/13 12/3/13 18/3/13
f 11/3/14 59/3/14 57/3/14
f 57/3/14 13/3/14 11/3/14
f 13/161/6 57/159/6 58/160/6
f 58/160/6 18/162/6 13/161/6
f 32/165/5 19/163/5 20/164/5
f 20/164/5 30/3/5 32/165/5
f 19/168/15 32/166/15 34/167/15
f 34/167/15 17/169/15 19/168/15
f 17/170/6 34/50/6 29/51/6
f 29/51/6 16/171/6 17/170/6
f 30/173/16 20/3/16 16/172/16
f 16/172/16 29/174/16 30/173/16

